<?xml version="1.0" encoding="utf-8"?>
<!-- Generator: Adobe Illustrator 26.1.0, SVG Export Plug-In . SVG Version: 6.00 Build 0)  -->
<svg version="1.1" id="Layer_1" xmlns="http://www.w3.org/2000/svg" xmlns:xlink="http://www.w3.org/1999/xlink" x="0px" y="0px"
	 viewBox="0 0 94 137" style="enable-background:new 0 0 94 137;" xml:space="preserve">
<style type="text/css">
	.st0{fill:#394149;}
</style>
<path class="st0" d="M43.4,85.4v34.7c0,1.3-0.5,2.6-1.5,3.5c-1,0.9-2.3,1.5-3.7,1.5c-1.4,0-2.7-0.5-3.7-1.5c-1-0.9-1.5-2.2-1.5-3.5
	V85.4c1.4,1,3.2,1.6,5,1.6C39.9,87.1,41.8,86.5,43.4,85.4z"/>
<path class="st0" d="M87.6,75.4c-1.3,0-2.6,0.5-3.5,1.4s-1.5,2.1-1.5,3.4v6c0,1.3,0.5,2.6,1.5,3.5c1,0.9,2.3,1.5,3.7,1.5
	s2.7-0.5,3.7-1.5c1-0.9,1.5-2.2,1.5-3.5v-5.8c0-0.7-0.1-1.4-0.3-2c-0.3-0.6-0.7-1.2-1.2-1.7c-0.5-0.5-1.1-0.8-1.8-1.1
	C89,75.4,88.3,75.3,87.6,75.4z"/>
<path class="st0" d="M21.7,98.5c-1.8-0.1-3.5-0.6-5-1.6v34.8c0,1.3,0.5,2.6,1.5,3.6c1,0.9,2.3,1.5,3.7,1.5c1.4,0,2.7-0.5,3.7-1.5
	c1-0.9,1.5-2.2,1.5-3.6V97.2C25.6,98.2,23.6,98.7,21.7,98.5z"/>
<path class="st0" d="M71.4,64.9c-0.7,0-1.3,0.1-2,0.3c-0.6,0.2-1.2,0.6-1.7,1c-0.5,0.4-0.9,1-1.1,1.6c-0.3,0.6-0.4,1.2-0.4,1.9v26.7
	c0,1.3,0.5,2.6,1.5,3.6c1,0.9,2.3,1.5,3.7,1.5c1.4,0,2.7-0.5,3.7-1.5c1-0.9,1.5-2.2,1.5-3.6V70.1c0-0.7-0.1-1.4-0.3-2
	c-0.3-0.6-0.7-1.2-1.2-1.7c-0.5-0.5-1.1-0.8-1.8-1.1C72.6,65,71.9,65,71.2,65L71.4,64.9z"/>
<path class="st0" d="M54.9,75.2c-1.9,0-3.7-0.6-5.2-1.6v34.9c0,1.3,0.5,2.6,1.5,3.6c1,0.9,2.3,1.5,3.7,1.5c1.4,0,2.7-0.5,3.7-1.5
	c1-0.9,1.5-2.2,1.5-3.6V73.6c-1.6,1.1-3.5,1.7-5.5,1.7L54.9,75.2z"/>
<path class="st0" d="M10.4,102V4.5c0-1.2-0.5-2.3-1.4-3.2C8.2,0.5,7,0,5.8,0H4.7C3.4,0,2.3,0.5,1.4,1.3C0.5,2.1,0,3.3,0,4.5V102
	c0,1.2,0.5,2.3,1.4,3.2c0.9,0.8,2.1,1.3,3.3,1.3h1.1c1.2,0,2.4-0.5,3.3-1.3C9.9,104.3,10.4,103.1,10.4,102z"/>
<path class="st0" d="M22.3,94.8h-1.1c-1.2,0-2.4-0.5-3.3-1.3c-0.9-0.8-1.4-2-1.4-3.2V16.1c0-1.2,0.5-2.3,1.4-3.2
	c0.9-0.8,2.1-1.3,3.3-1.3h1.1c1.2,0,2.4,0.5,3.3,1.3c0.9,0.8,1.4,2,1.4,3.2v74.4c0,1.2-0.5,2.3-1.4,3.2
	C24.7,94.5,23.5,94.9,22.3,94.8L22.3,94.8z"/>
<path class="st0" d="M38.7,83.4h-1.1c-1.2,0-2.4-0.5-3.3-1.3c-0.9-0.8-1.4-2-1.4-3.2V27.6c0-0.6,0.1-1.2,0.3-1.7
	c0.2-0.5,0.6-1,1-1.5c0.4-0.4,0.9-0.8,1.5-1c0.6-0.2,1.2-0.3,1.8-0.3h1.1c1.2,0,2.4,0.5,3.3,1.3c0.9,0.8,1.4,2,1.4,3.2V79
	c0,1.2-0.5,2.3-1.4,3.2C41.1,83,39.9,83.4,38.7,83.4z"/>
<path class="st0" d="M55.2,71.7h-1c-1.2,0-2.4-0.5-3.3-1.3c-0.9-0.8-1.4-2-1.4-3.2V39.6c0-0.6,0-1.2,0.3-1.8c0.2-0.6,0.6-1.1,1-1.6
	c0.4-0.5,1-0.8,1.6-1.1c0.6-0.2,1.2-0.4,1.9-0.4h1.1c1.2,0,2.4,0.5,3.3,1.3c0.9,0.8,1.4,2,1.4,3.2v27.8c0,0.6-0.1,1.2-0.3,1.7
	c-0.2,0.6-0.6,1.1-1,1.5c-0.4,0.4-1,0.8-1.5,1C56.4,71.5,55.8,71.7,55.2,71.7L55.2,71.7z"/>
<path class="st0" d="M71.7,61.3h-1.1c-1.2,0-2.4-0.5-3.3-1.3c-0.9-0.8-1.4-2-1.4-3.2v-7.2c0-1.2,0.5-2.3,1.4-3.2
	c0.9-0.8,2.1-1.3,3.3-1.3h1.1c1.2,0,2.4,0.5,3.3,1.3c0.9,0.8,1.4,2,1.4,3.2v7.2c0,1.2-0.5,2.3-1.4,3.2
	C74.1,60.9,72.9,61.3,71.7,61.3L71.7,61.3z"/>
</svg>
